<svg xmlns="http://www.w3.org/2000/svg" xmlns:xlink="http://www.w3.org/1999/xlink"><symbol viewBox="0 0 39 39" id="icon_behance"><path d="M19.5.5C9 .5.5 9 .5 19.5s8.5 19 19 19 19-8.5 19-19-8.5-19-19-19zm0 37c-9.9 0-18-8.1-18-18s8.1-18 18-18 18 8.1 18 18-8.1 18-18 18zM1019.15 458.341c0 3.5-3.6 3.4-3.6 3.4h-5.9v-11.5h5.9c1.8 0 3.2 1 3.2 3.1s-1.8 2.2-1.8 2.2c2.3 0 2.2 2.8 2.2 2.8zm8.8-.2h-5.9c0 2.1 2 2 2 2 1.9 0 1.8-1.2 1.8-1.2h2c0 3.3-3.9 3.1-3.9 3.1-4.7 0-4.4-4.4-4.4-4.4s0-4.4 4.4-4.4c4.7 0 4 4.9 4 4.9zm-1.7-7.2h-4.7v1.4h4.7v-1.4z" fill="#fff"/><g><path d="M19.5 38.5C9 38.5.5 30 .5 19.5S9 .5 19.5.5s19 8.5 19 19-8.5 19-19 19zm0-37c-9.9 0-18 8.1-18 18s8.1 18 18 18 18-8.1 18-18-8.1-18-18-18z" fill="#fff"/></g></symbol><symbol viewBox="0 0 27 22" id="icon_burger"><g fill="#fff"><path d="M26 0H0v2h27V0zM26 10H0v2h27v-2zM26 20H0v2h27v-2z"/></g></symbol><symbol viewBox="0 0 24 23" id="icon_close"><path fill="#fff" d="M2 .6L.6 2l10 9.7-10 9.7L2 22.8l10.1-9.7 10.1 9.7 1.4-1.4-10.1-9.7L23.6 2 22.2.6l-10.1 9.7z"/><title>MENU</title><desc>Created using Figma</desc></symbol></svg>