<?xml version="1.0" encoding="utf-8"?>
<!-- Generator: Adobe Illustrator 21.1.0, SVG Export Plug-In . SVG Version: 6.00 Build 0)  -->
<svg version="1.1" id="Calque_1" xmlns="http://www.w3.org/2000/svg" xmlns:xlink="http://www.w3.org/1999/xlink" x="0px" y="0px"
	 viewBox="0 0 39 39" style="enable-background:new 0 0 39 39;" xml:space="preserve">
<g id="Behance">
	<path style="fill:#FFFFFF;" d="M19.5,0.5c-10.5,0-19,8.5-19,19c0,10.5,8.5,19,19,19c10.5,0,19-8.5,19-19C38.5,9,30,0.5,19.5,0.5z
		 M19.5,37.5c-9.9,0-18-8.1-18-18c0-9.9,8.1-18,18-18c9.9,0,18,8.1,18,18C37.5,29.4,29.4,37.5,19.5,37.5z"/>
	<g id="Combined_Shape">
		<g transform="translate(999.25 436.641)">
			<path id="path2_fill" style="fill:#FFFFFF;" d="M19.9,21.7c0,3.5-3.6,3.4-3.6,3.4h-3.3h-0.1h-2.5V13.6h2.5h0.1h3.3
				c1.8,0,3.2,1,3.2,3.1c0,2.1-1.8,2.2-1.8,2.2C20,18.9,19.9,21.7,19.9,21.7z M28.7,21.5h-5.9c0,2.1,2,2,2,2c1.9,0,1.8-1.2,1.8-1.2
				h2c0,3.3-3.9,3.1-3.9,3.1c-4.7,0-4.4-4.4-4.4-4.4s0-4.4,4.4-4.4C29.4,16.6,28.7,21.5,28.7,21.5z M27,14.3h-4.7v1.4H27V14.3z"/>
		</g>
	</g>
</g>
<g id="Fill-184">
	<path style="fill:#FFFFFF;" d="M19.5,38.5c-10.5,0-19-8.5-19-19s8.5-19,19-19s19,8.5,19,19S30,38.5,19.5,38.5z M19.5,1.5
		c-9.9,0-18,8.1-18,18c0,9.9,8.1,18,18,18c9.9,0,18-8.1,18-18C37.5,9.6,29.4,1.5,19.5,1.5z"/>
</g>
</svg>
